PathFileType	4	(X/Y/Z)	Kaydara	
DataRate	CameraRate	NumFrames	NumMarkers	Units	OrigDataRate	OrigDataStartFrame	OrigNumFrames	
60.00	60.00	4	74	mm	60.00	708	250	
Frame#	Time	N_lasi			N_rasi			N_rpsi			N_lpsi			N_fneck			N_bneck			N_fhead			N_rhead			N_lhead			N_rshld			N_relbtop			N_relbext			N_relblow			N_rwrext			N_rwrtop			N_rwrlow			N_lshld			N_lelbext			N_lelblow			N_lelbtop			N_lwrext			N_lwrtop			N_lwrlow			N_rtopleg			N_ltopleg			N_rkneefr			N_rkneebk			N_rkneeis			N_lkneefr			N_lknssbk			N_lkneeis			N_rankfr			N_rankis			N_rankbk			N_lankfr			N_lankbk			N_lankis			D_lasi			D_rasi			D_rpsi			D_lpsi			D_fneck			D_bneck			D_fhead			D_rhead			D_lhead			D_rshld			D_relbtop			D_relbext			D_relblow			D_rwrext			D_rwrtop			D_rwrlow			D_lshld			D_lelbext			D_lelblow			D_lelbtop			D_lwrext			D_lwrtop			D_lwrlow			D_rtopleg			D_ltopleg			D_rkneefr			D_rkneebk			D_rkneeis			D_lkneefr			D_lknssbk			D_lkneeis			D_rankfr			D_rankis			D_rankbk			D_lankfr			D_lankbk			D_lankis			
		X1	Y1	Z1	X2	Y2	Z2	X3	Y3	Z3	X4	Y4	Z4	X5	Y5	Z5	X6	Y6	Z6	X7	Y7	Z7	X8	Y8	Z8	X9	Y9	Z9	X10	Y10	Z10	X11	Y11	Z11	X12	Y12	Z12	X13	Y13	Z13	X14	Y14	Z14	X15	Y15	Z15	X16	Y16	Z16	X17	Y17	Z17	X18	Y18	Z18	X19	Y19	Z19	X20	Y20	Z20	X21	Y21	Z21	X22	Y22	Z22	X23	Y23	Z23	X24	Y24	Z24	X25	Y25	Z25	X26	Y26	Z26	X27	Y27	Z27	X28	Y28	Z28	X29	Y29	Z29	X30	Y30	Z30	X31	Y31	Z31	X32	Y32	Z32	X33	Y33	Z33	X34	Y34	Z34	X35	Y35	Z35	X36	Y36	Z36	X37	Y37	Z37	X38	Y38	Z38	X39	Y39	Z39	X40	Y40	Z40	X41	Y41	Z41	X42	Y42	Z42	X43	Y43	Z43	X44	Y44	Z44	X45	Y45	Z45	X46	Y46	Z46	X47	Y47	Z47	X48	Y48	Z48	X49	Y49	Z49	X50	Y50	Z50	X51	Y51	Z51	X52	Y52	Z52	X53	Y53	Z53	X54	Y54	Z54	X55	Y55	Z55	X56	Y56	Z56	X57	Y57	Z57	X58	Y58	Z58	X59	Y59	Z59	X60	Y60	Z60	X61	Y61	Z61	X62	Y62	Z62	X63	Y63	Z63	X64	Y64	Z64	X65	Y65	Z65	X66	Y66	Z66	X67	Y67	Z67	X68	Y68	Z68	X69	Y69	Z69	X70	Y70	Z70	X71	Y71	Z71	X72	Y72	Z72	X73	Y73	Z73	X74	Y74	Z74	

157	11.783	-999.24553	1092.92084	961.09367	-1230.23270	1109.38545	1075.94208	-1388.34915	1172.41066	845.83458	-1081.64642	1157.20161	680.30441	-1071.80679	1521.41937	857.05666	-1174.60426	1622.30286	887.25952	-980.42068	1666.15829	1039.49097	-1163.17444	1719.81995	974.53239	-1035.37460	1699.86252	886.50406	-1370.01236	1479.10156	1035.80650	-1505.22797	1173.47755	1056.65245	-1499.23615	1148.51547	1168.30185	-1434.21326	1182.65465	1109.51332	-1423.49960	884.96468	1163.25714	-1382.35458	900.87975	1183.03581	-1349.41269	901.62849	1147.86163	-983.86948	1482.57187	711.46431	-1021.36009	1147.14432	645.22095	-917.16385	1163.03810	637.13146	-977.95837	1169.42520	574.70875	-929.91226	866.18965	620.58842	-902.71645	861.82343	660.02365	-944.38797	868.87093	692.88246	-1375.42938	949.58778	1012.12532	-1001.09642	987.17773	717.31750	-1317.19299	492.98454	909.80392	-1384.91089	531.38859	788.67081	-1236.48979	503.64540	806.28380	-963.61259	530.04997	1028.27538	-992.96860	528.19218	897.72125	-1102.96356	521.35399	984.23531	-1405.82520	119.55222	819.57809	-1326.92902	123.93934	803.48526	-1369.27383	110.13728	730.43114	-996.75102	176.47116	1036.30432	-1027.30667	163.10230	959.89388	-1072.63687	178.23421	1036.00464	-247.32033	1062.35298	-238.22166	-114.17156	1072.61932	-490.29160	38.93025	1168.59772	-354.31076	-60.45880	1145.47310	-162.55404	-212.37539	1553.43384	-340.90740	-93.55522	1630.56778	-312.60162	-325.14072	1726.27335	-344.89368	-155.02835	1761.32080	-405.76580	-175.75062	1752.28668	-252.22000	-88.49082	1509.51050	-525.01492	-80.68672	1166.18774	-614.04568	-126.44480	1169.19800	-551.63311	-144.24177	1218.85941	-644.00307	-263.69602	998.20930	-684.61334	-309.81750	1034.51927	-683.29834	-308.96702	1030.44182	-628.05325	-142.17580	1519.34647	-98.97261	-93.68635	1189.17702	-103.58119	-124.63513	1227.37816	-15.51102	-48.57530	1205.78529	-38.70228	-119.48042	967.50984	14.59782	-162.12315	971.68686	2.15944	-159.92006	972.03209	-48.84546	-9.50004	1021.47575	-503.27477	-157.30912	1026.01593	-125.36600	-79.31069	483.78105	-457.39372	26.02679	510.21175	-452.85160	-21.17930	492.99362	-337.00909	-390.71621	529.72691	-295.69542	-292.49689	547.49065	-234.50886	-313.95378	525.55958	-361.26961	-4.61743	148.40990	-439.63970	2.51853	151.20102	-369.27666	71.68488	151.58089	-414.20918	-286.58403	193.68887	-300.49047	-224.75586	195.48927	-257.73420	-235.77353	202.34501	-342.95815 
158	11.800	-990.18738	1087.84531	971.19308	-1219.56398	1104.92592	1089.81422	-1381.83456	1170.10704	862.02827	-1077.11594	1154.38980	692.29218	-1063.60344	1518.47824	869.75731	-1166.40106	1619.36172	899.96025	-969.06990	1663.68546	1048.90488	-1153.68240	1716.88721	987.17651	-1027.56889	1697.08069	896.78146	-1358.37830	1475.71457	1052.76047	-1492.09793	1170.18127	1077.25754	-1485.69000	1145.29083	1188.22685	-1420.25131	1179.50157	1128.75816	-1412.73743	881.09619	1183.18878	-1370.73990	896.30318	1201.36276	-1339.65424	896.12297	1163.52882	-980.49942	1478.99078	720.08644	-1020.24254	1144.94080	653.60558	-916.97227	1160.56503	642.64221	-978.79921	1167.38121	581.31790	-931.11168	863.88466	627.92126	-903.98750	859.95033	667.43469	-947.00027	866.82411	697.85828	-1367.21313	946.54060	1026.59973	-996.03600	983.83705	728.12759	-1314.52225	491.24001	918.34679	-1380.91599	531.52351	797.11861	-1232.59514	502.68124	813.21892	-961.20178	528.55427	1037.21054	-992.43118	522.77763	906.75720	-1101.28998	516.18420	995.89569	-1404.62173	119.76692	821.51932	-1325.58884	123.56172	804.67354	-1368.67722	111.21233	731.77811	-975.29358	178.09727	1069.22935	-1008.35442	157.80320	995.61363	-1051.17241	176.57656	1072.44949	-256.28162	1060.27435	-240.73931	-125.97471	1071.24153	-495.14812	28.68452	1167.48093	-360.70324	-67.81396	1145.10872	-164.25304	-222.94779	1552.05597	-342.39193	-104.04675	1629.10446	-315.67955	-335.86250	1725.12894	-344.11591	-166.58987	1760.13458	-407.50164	-185.14769	1750.79010	-253.65788	-102.43089	1508.50052	-528.45177	-99.08340	1165.15549	-618.88271	-142.94264	1168.86360	-555.48557	-162.42065	1219.24110	-646.81633	-288.54103	1001.93672	-684.29718	-333.46512	1039.80789	-681.99020	-331.30581	1035.74722	-627.11720	-148.31101	1517.18811	-101.63858	-99.47817	1186.93878	-109.11313	-128.67899	1224.90196	-19.99935	-53.32626	1203.41354	-44.78043	-122.43250	964.94987	9.66739	-165.41277	969.14864	-2.41868	-163.74033	969.28749	-53.30308	-21.48851	1020.55443	-508.46321	-164.42755	1024.33258	-129.13059	-82.52229	482.38319	-457.91580	22.52012	510.28694	-454.21875	-23.85747	493.21022	-337.81322	-398.77926	527.95422	-296.90695	-298.88645	541.88168	-237.92326	-323.98922	523.90614	-364.89365	-5.21945	147.97433	-439.21925	1.91171	151.17803	-368.91804	71.00698	151.79743	-414.10213	-320.14481	189.33821	-312.10934	-256.55828	185.17307	-272.37026	-270.93384	194.93303	-356.91704 
159	11.817	-980.56870	1082.66617	982.07481	-1206.91940	1100.83694	1106.39000	-1374.33319	1167.84912	878.27209	-1069.87534	1150.63278	706.96869	-1054.87404	1515.51392	882.41875	-1157.67151	1616.39740	912.62161	-958.10455	1660.97443	1057.63329	-1143.50182	1713.84247	999.55780	-1019.13445	1694.31168	906.81725	-1345.85007	1472.27753	1069.24355	-1478.25317	1166.71486	1096.79298	-1470.65765	1140.37918	1205.98709	-1404.03107	1173.14453	1144.74304	-1401.11557	877.33200	1202.55142	-1358.42072	891.81847	1219.25011	-1328.61969	890.84335	1180.48843	-976.59622	1475.51224	728.62015	-1018.19893	1142.04857	663.34160	-916.00601	1157.27013	649.56604	-978.56262	1164.78172	589.21650	-931.07941	860.98694	635.61653	-904.57962	857.13913	675.58571	-948.36906	864.04343	705.02342	-1357.93793	943.20206	1039.90158	-991.04713	980.00237	737.98607	-1309.54773	488.99780	926.14761	-1376.22864	531.72310	806.00426	-1227.74582	501.94523	821.41380	-958.01430	527.74128	1046.49612	-992.02248	517.17827	916.42159	-1099.34891	512.61139	1007.50015	-1403.56674	119.98463	823.31017	-1324.63989	123.39917	806.25412	-1367.64236	112.66299	733.27118	-954.77859	181.33373	1097.85721	-990.49294	155.38132	1027.24403	-1030.10826	177.59182	1104.66881	-265.37685	1058.00476	-242.88895	-138.23672	1069.91882	-498.80409	17.54883	1166.53954	-365.29606	-75.61082	1144.30496	-169.93534	-233.78742	1550.54520	-343.38245	-114.81218	1627.40997	-318.36651	-346.84658	1723.79349	-343.13103	-178.47994	1758.65814	-408.90770	-194.75819	1749.08539	-254.75437	-116.58529	1507.37778	-531.50696	-117.16108	1163.93738	-623.15754	-159.53679	1168.54370	-558.61420	-180.22144	1219.38126	-648.88161	-312.61707	1005.27405	-683.06068	-356.21616	1044.42276	-679.87671	-353.21545	1040.38086	-624.74213	-155.25206	1514.78622	-103.94209	-105.23737	1184.50890	-114.96086	-133.67577	1222.08092	-24.65996	-58.48581	1200.98465	-51.14450	-125.85894	962.27463	4.50372	-169.03131	966.13205	-6.82729	-168.20438	966.50658	-57.85232	-33.55457	1019.65988	-513.44830	-171.76239	1022.32681	-132.57932	-86.19685	480.98671	-458.34373	18.44025	510.39223	-455.74219	-27.38213	493.25165	-338.67493	-405.99930	525.24513	-297.32309	-303.98596	535.11749	-241.30215	-333.59043	521.25923	-367.84264	-5.95294	147.54031	-438.97160	1.19272	151.20236	-368.65761	70.25365	152.17615	-414.25388	-352.85561	186.17796	-321.91425	-288.07678	176.06628	-285.77658	-305.57163	189.24969	-368.82416 
160	11.833	-970.72136	1077.09641	993.03932	-1195.69946	1095.48225	1118.80287	-1365.88409	1165.28976	894.25575	-1062.96310	1147.35077	719.45480	-1045.56198	1512.57034	894.81270	-1148.35945	1613.45367	925.01564	-946.28693	1658.28690	1066.33141	-1132.92046	1710.80063	1011.53122	-1010.20012	1691.42258	916.63536	-1332.76550	1468.80646	1085.32074	-1463.70941	1163.18153	1115.12794	-1455.70023	1136.68243	1223.55873	-1388.65997	1169.28444	1161.55136	-1388.91220	873.65189	1221.25122	-1345.12100	887.36145	1236.29906	-1316.66016	885.72960	1197.46864	-971.88225	1471.97342	737.13730	-1015.47165	1138.29979	674.40224	-914.18549	1153.43094	657.86102	-977.16255	1161.17500	598.44700	-929.81720	857.49069	643.56232	-904.07310	853.53912	684.06479	-948.85345	860.17830	712.81532	-1348.33923	940.29175	1052.76169	-985.43129	976.20842	748.11104	-1304.86435	486.88671	935.09094	-1370.88959	531.89037	815.59601	-1222.72911	500.67924	831.14655	-954.39888	527.30202	1056.55571	-991.84341	512.23553	927.77321	-1097.22534	510.09224	1021.64330	-1402.29782	120.35500	824.82773	-1323.22632	123.36125	808.16612	-1366.43372	114.57123	734.90616	-936.21223	185.31881	1121.07407	-974.63760	154.78987	1053.62213	-1010.92072	180.23247	1132.06459	-274.47294	1055.50674	-245.00109	-150.52749	1068.35876	-502.11514	6.57033	1165.37926	-370.98469	-86.13475	1142.28928	-172.59481	-244.76345	1548.72604	-344.09019	-125.55917	1625.75119	-320.78243	-358.13980	1722.20963	-341.88263	-190.66906	1757.06207	-410.06008	-204.54063	1747.23846	-255.71547	-130.82994	1506.06445	-534.20486	-134.82512	1162.55402	-626.54800	-175.60972	1168.02711	-561.25183	-197.67639	1219.11491	-650.44960	-335.52010	1008.21999	-681.06758	-378.07018	1048.49548	-677.08199	-373.14548	1044.27658	-621.80557	-161.83758	1512.72049	-106.11182	-113.61959	1182.20093	-119.63496	-138.15701	1219.29359	-28.58714	-64.38715	1198.26981	-57.52183	-129.81828	959.35783	-0.84030	-173.05994	963.01506	-11.37149	-173.30603	963.52303	-62.34402	-45.90255	1018.52570	-518.12183	-179.21654	1019.97253	-135.94091	-90.45282	479.31583	-458.32794	13.48855	510.50163	-457.51362	-31.57290	493.30750	-339.90395	-412.44892	522.20253	-297.32334	-308.79650	527.94727	-243.86269	-342.90741	517.70252	-370.98114	-6.94798	147.25597	-438.90739	0.48754	151.17167	-368.72677	69.23791	152.69946	-414.43546	-384.31881	184.39228	-329.98600	-318.85117	168.65587	-297.43938	-339.15936	184.90925	-379.27250 
